<svg width="45" height="35" fill="none" xmlns="http://www.w3.org/2000/svg"><path d="M21.8935.1159A1.6318 1.6318 0 0 1 22.499 0c.2084 0 .4145.0395.6054.1159 7.4632 2.9915 14.5822 6.6586 21.2511 10.947.235.1511.4183.3604.5285.6035.1102.243.1428.5098.0939.7692-.0489.2594-.1772.5007-.3699.6958-.1928.195-.442.3358-.7187.4059-6.9235 1.7535-13.6228 4.1806-19.9837 7.24l-.006.0037-.6862.3331a1.6234 1.6234 0 0 1-.7134.1639 1.6234 1.6234 0 0 1-.7134-.1639 105.226 105.226 0 0 0-8.3692-3.6589v-.4145a.6224.6224 0 0 1 .0907-.3298.6953.6953 0 0 1 .2564-.2458 113.726 113.726 0 0 1 9.3904-4.6638c.3618-.1595.6397-.4443.7726-.7917.1328-.3475.1097-.7291-.0642-1.0609-.174-.3318-.4846-.5866-.8634-.7085-.3789-.1218-.795-.1006-1.1568.059a116.8995 116.8995 0 0 0-9.6467 4.7914c-.4452.2477-.8293.5777-1.1278.969-.2984.3913-.5048.8353-.6058 1.3037a107.0189 107.0189 0 0 0-9.352-2.826c-.2768-.0701-.526-.2109-.7188-.4059-.1927-.1951-.321-.4364-.3699-.6958a1.2818 1.2818 0 0 1 .094-.7692c.1101-.2431.2934-.4524.5284-.6035C7.3128 6.7747 14.4311 3.1075 21.8935.1159Z" fill="#4D6490"/><path d="M24.6384 23.5608c4.957-2.4287 10.1332-4.4609 15.471-6.0741a103.9 103.9 0 0 1 .5147 7.9303c.0074.2793-.0773.5541-.2429.7885-.1656.2345-.4045.4176-.6855.5255-5.7208 2.1912-11.1984 4.8822-16.357 8.0358-.2487.152-.5408.2331-.8396.2331-.2988 0-.5909-.0811-.8395-.2331-5.158-3.1535-10.6349-5.8445-16.355-8.0358-.2814-.1076-.5207-.2906-.6867-.5251-.166-.2344-.251-.5094-.2437-.7889.0706-2.6687.2442-5.3115.5146-7.9321a103.5592 103.5592 0 0 1 5.5015 1.8322v2.3504c-.436.2304-.8026.5568-1.0665.9498-.2638.393-.4167.8401-.4448 1.3008-.028.4608.0697.9208.2842 1.3382.2145.4175.5392.7793.9445 1.0528a9.2772 9.2772 0 0 1-.8012 2.0543c.9122.3942 1.8184.8032 2.7165 1.2233.5063-.9449.88-1.9449 1.112-2.976.5103-.208.9479-.5416 1.2644-.9636.3165-.422.4995-.9161.5287-1.4276.0293-.5115-.0964-1.0205-.363-1.4705-.2666-.4501-.6638-.8238-1.1476-1.0797v-1.1937a102.0106 102.0106 0 0 1 6.9424 3.087c.6582.3224 1.393.4911 2.1392.4911.7463 0 1.481-.1687 2.1393-.4911v-.0018Z" fill="#4D6490"/><path d="M7.2861 30.9433c.8476-.7755 1.5197-1.6471 2.0182-2.5799a97.9655 97.9655 0 0 1 2.7184 1.2233c-.6604 1.23-1.5372 2.3517-2.5953 3.3202a1.5169 1.5169 0 0 1-.4914.3216 1.6292 1.6292 0 0 1-.5893.12 1.635 1.635 0 0 1-.5936-.1008 1.531 1.531 0 0 1-.5034-.3056 1.3852 1.3852 0 0 1-.3331-.4616 1.2871 1.2871 0 0 1-.11-.5443 1.2924 1.2924 0 0 1 .1308-.5405 1.3984 1.3984 0 0 1 .3507-.4506l-.002-.0018Z" fill="#4D6490"/></svg>