<svg width="820" height="765" fill="none" xmlns="http://www.w3.org/2000/svg"><g clip-path="url(#a)"><path d="M819.6 102V0l-90.067 51v102l90.067-51Z" fill="url(#b)" fill-opacity=".1"/><path d="M819.6 204V102l-90.067 51v102l90.067-51Z" fill="url(#c)" fill-opacity=".1"/><path d="M639.466 306 549.4 255l-90.067 51 90.067 51 90.066-51Z" fill="url(#d)" fill-opacity=".1"/><path d="m459.333 408 90.067 51V357l-90.067-51v102Z" fill="url(#e)" fill-opacity=".1"/><path d="m639.466 102 90.067 51V51L639.466 0v102Z" fill="url(#f)" fill-opacity=".1"/><path d="m279.2 510 90.066 51V459L279.2 408v102Z" fill="url(#g)" fill-opacity=".1"/><path d="m279.2 612 90.066 51V561L279.2 510v102Z" fill="url(#h)" fill-opacity=".1"/><path d="m279.2 714 90.066 51V663L279.2 612v102Z" fill="url(#i)" fill-opacity=".1"/><path d="M279.2 612V510l-90.067 51v102l90.067-51Z" fill="url(#j)" fill-opacity=".1"/><path d="M459.333 612V510l-90.067 51v102l90.067-51Z" fill="url(#k)" fill-opacity=".1"/><path d="m459.333 714-90.067-51v102l90.067-51Z" fill="url(#l)" fill-opacity=".1"/><path d="m99.067 510 90.066 51V459l-90.066-51v102Z" fill="url(#m)" fill-opacity=".1"/><path d="M99.067 510V408L9 459v102l90.067-51Z" fill="url(#n)" fill-opacity=".1"/><path d="M819.6 102V0l-90.067 51v102l90.067-51Z" fill="url(#o)" fill-opacity=".1"/><path d="M819.6 204V102l-90.067 51v102l90.067-51Z" fill="url(#p)" fill-opacity=".1"/><path d="M639.466 306 549.4 255l-90.067 51 90.067 51 90.066-51Z" fill="url(#q)" fill-opacity=".1"/><path d="m459.333 408 90.067 51V357l-90.067-51v102Z" fill="url(#r)" fill-opacity=".1"/><path d="m639.466 102 90.067 51V51L639.466 0v102Z" fill="url(#s)" fill-opacity=".1"/><path d="m279.2 510 90.066 51V459L279.2 408v102Z" fill="url(#t)" fill-opacity=".1"/><path d="m279.2 612 90.066 51V561L279.2 510v102Z" fill="url(#u)" fill-opacity=".1"/><path d="m279.2 714 90.066 51V663L279.2 612v102Z" fill="url(#v)" fill-opacity=".1"/><path d="M279.2 612V510l-90.067 51v102l90.067-51Z" fill="url(#w)" fill-opacity=".1"/><path d="M459.333 612V510l-90.067 51v102l90.067-51Z" fill="url(#x)" fill-opacity=".1"/><path d="m459.333 714-90.067-51v102l90.067-51Z" fill="url(#y)" fill-opacity=".1"/><path d="m99.067 510 90.066 51V459l-90.066-51v102Z" fill="url(#z)" fill-opacity=".1"/><path d="M99.067 510V408L9 459v102l90.067-51Z" fill="url(#A)" fill-opacity=".1"/><path d="m729.533 153-90.067-51-90.066 51 90.066 51 90.067-51Z" fill="url(#B)" fill-opacity=".1"/><path d="M639.466 204 549.4 153l-90.067 51 90.067 51 90.066-51Z" fill="url(#C)" fill-opacity=".1"/><path d="M549.4 153V51l-90.067 51v102l90.067-51Z" fill="url(#D)" fill-opacity=".1"/><path d="m369.266 153 90.067 51V102l-90.067-51v102Z" fill="url(#E)" fill-opacity=".1"/><path d="m729.533 357-90.067-51-90.066 51 90.066 51 90.067-51Z" fill="url(#F)" fill-opacity=".1"/><path d="m279.2 408-90.067-51-90.066 51 90.066 51 90.067-51Z" fill="url(#G)" fill-opacity=".1"/><path d="m279.2 408-90.067-51-90.066 51 90.066 51 90.067-51Z" fill="url(#H)" fill-opacity=".1"/><path d="m99.067 612 90.066 51V561l-90.066-51v102Z" fill="url(#I)" fill-opacity=".1"/><path d="m99.067 612 90.066 51V561l-90.066-51v102Z" fill="url(#J)" fill-opacity=".1"/><path d="m459.333 408-90.067-51-90.066 51 90.066 51 90.067-51Z" fill="url(#K)" fill-opacity=".1"/><path d="m459.333 408-90.067-51-90.066 51 90.066 51 90.067-51Z" fill="url(#L)" fill-opacity=".1"/><path d="m99.067 714 90.066 51V663l-90.066-51v102Z" fill="url(#M)" fill-opacity=".1"/><path d="M819.6 102V0l-90.067 51m90.067 51-90.067 51m90.067-51v102l-90.067 51m0-102V51m0 102v102m0-102-90.067-51m90.067 51-90.067 51m90.067-153L639.466 0v102m90.067 153-90.067-51m0 0v102m0-102L549.4 255m90.066-51L549.4 153m90.066 153L549.4 255m90.066 51L549.4 357m90.066-51 90.067 51-90.067 51-90.066-51m0-102-90.067 51m90.067-51-90.067-51m0 102 90.067 51m-90.067-51v102m90.067-51v102l-90.067-51m0 0-90.067 51m90.067-51-90.067-51-90.066 51m360.266-306L549.4 153M279.2 408l90.066 51M279.2 408v102m0-102-90.067 51m90.067-51-90.067-51-90.066 51m270.199 51v102m0 0L279.2 510m90.066 51v102m0-102 90.067-51v102l-90.067 51M279.2 510v102m0-102-90.067 51m180.133 102L279.2 612m90.066 51v102m0-102 90.067 51-90.067 51M279.2 612v102l90.066 51M279.2 612l-90.067 51m0 0V561m0 102-90.066-51m90.066 51v102l-90.066-51V612m90.066-51-90.066-51m90.066 51V459m-90.066 51V408m0 102L9 561V459l90.067-51m0 102v102m0-204 90.066 51M549.4 153l-90.067 51m90.067-51V51l-90.067 51m0 102V102m0 102-90.067-51V51l90.067 51" stroke="#9BB6E4" stroke-linecap="round"/><circle cx="188.9" cy="458.1" r="2.5" fill="#9BB6E4"/><circle cx="188.9" cy="358.1" r="2.5" fill="#9BB6E4"/><circle cx="729.5" cy="50.5" r="2.5" fill="#9BB6E4"/><circle cx="549.5" cy="152.5" r="2.5" fill="#9BB6E4"/><circle cx="729.5" cy="253.5" r="2.5" fill="#9BB6E4"/><circle cx="370.5" cy="52.5" r="2.5" fill="#9BB6E4"/><circle cx="459.5" cy="407.5" r="2.5" fill="#9BB6E4"/><circle cx="639.5" cy="306.5" r="2.5" fill="#9BB6E4"/><circle cx="279.5" cy="612.5" r="2.5" fill="#9BB6E4"/><circle cx="188.9" cy="662.5" r="2.5" fill="#9BB6E4"/></g><defs><linearGradient id="b" x1="843" y1="-25" x2="-39" y2="765" gradientUnits="userSpaceOnUse"><stop offset=".109" stop-color="#82A6ED" stop-opacity=".59"/><stop offset="1" stop-color="#82A6ED" stop-opacity="0"/></linearGradient><linearGradient id="c" x1="843" y1="-25" x2="-39" y2="765" gradientUnits="userSpaceOnUse"><stop offset=".109" stop-color="#82A6ED" stop-opacity=".59"/><stop offset="1" stop-color="#82A6ED" stop-opacity="0"/></linearGradient><linearGradient id="d" x1="843" y1="-25" x2="-39" y2="765" gradientUnits="userSpaceOnUse"><stop offset=".109" stop-color="#82A6ED" stop-opacity=".59"/><stop offset="1" stop-color="#82A6ED" stop-opacity="0"/></linearGradient><linearGradient id="e" x1="843" y1="-25" x2="-39" y2="765" gradientUnits="userSpaceOnUse"><stop offset=".109" stop-color="#82A6ED" stop-opacity=".59"/><stop offset="1" stop-color="#82A6ED" stop-opacity="0"/></linearGradient><linearGradient id="f" x1="843" y1="-25" x2="-39" y2="765" gradientUnits="userSpaceOnUse"><stop offset=".109" stop-color="#82A6ED" stop-opacity=".59"/><stop offset="1" stop-color="#82A6ED" stop-opacity="0"/></linearGradient><linearGradient id="g" x1="843" y1="-25" x2="-39" y2="765" gradientUnits="userSpaceOnUse"><stop offset=".109" stop-color="#82A6ED" stop-opacity=".59"/><stop offset="1" stop-color="#82A6ED" stop-opacity="0"/></linearGradient><linearGradient id="h" x1="843" y1="-25" x2="-39" y2="765" gradientUnits="userSpaceOnUse"><stop offset=".109" stop-color="#82A6ED" stop-opacity=".59"/><stop offset="1" stop-color="#82A6ED" stop-opacity="0"/></linearGradient><linearGradient id="i" x1="843" y1="-25" x2="-39" y2="765" gradientUnits="userSpaceOnUse"><stop offset=".109" stop-color="#82A6ED" stop-opacity=".59"/><stop offset="1" stop-color="#82A6ED" stop-opacity="0"/></linearGradient><linearGradient id="j" x1="843" y1="-25" x2="-39" y2="765" gradientUnits="userSpaceOnUse"><stop offset=".109" stop-color="#82A6ED" stop-opacity=".59"/><stop offset="1" stop-color="#82A6ED" stop-opacity="0"/></linearGradient><linearGradient id="k" x1="843" y1="-25" x2="-39" y2="765" gradientUnits="userSpaceOnUse"><stop offset=".109" stop-color="#82A6ED" stop-opacity=".59"/><stop offset="1" stop-color="#82A6ED" stop-opacity="0"/></linearGradient><linearGradient id="l" x1="843" y1="-25" x2="-39" y2="765" gradientUnits="userSpaceOnUse"><stop offset=".109" stop-color="#82A6ED" stop-opacity=".59"/><stop offset="1" stop-color="#82A6ED" stop-opacity="0"/></linearGradient><linearGradient id="m" x1="843" y1="-25" x2="-39" y2="765" gradientUnits="userSpaceOnUse"><stop offset=".109" stop-color="#82A6ED" stop-opacity=".59"/><stop offset="1" stop-color="#82A6ED" stop-opacity="0"/></linearGradient><linearGradient id="n" x1="843" y1="-25" x2="-39" y2="765" gradientUnits="userSpaceOnUse"><stop offset=".109" stop-color="#82A6ED" stop-opacity=".59"/><stop offset="1" stop-color="#82A6ED" stop-opacity="0"/></linearGradient><linearGradient id="o" x1="843" y1="-25" x2="-39" y2="765" gradientUnits="userSpaceOnUse"><stop offset=".109" stop-color="#82A6ED" stop-opacity=".59"/><stop offset="1" stop-color="#82A6ED" stop-opacity="0"/></linearGradient><linearGradient id="p" x1="843" y1="-25" x2="-39" y2="765" gradientUnits="userSpaceOnUse"><stop offset=".109" stop-color="#82A6ED" stop-opacity=".59"/><stop offset="1" stop-color="#82A6ED" stop-opacity="0"/></linearGradient><linearGradient id="q" x1="843" y1="-25" x2="-39" y2="765" gradientUnits="userSpaceOnUse"><stop offset=".109" stop-color="#82A6ED" stop-opacity=".59"/><stop offset="1" stop-color="#82A6ED" stop-opacity="0"/></linearGradient><linearGradient id="r" x1="843" y1="-25" x2="-39" y2="765" gradientUnits="userSpaceOnUse"><stop offset=".109" stop-color="#82A6ED" stop-opacity=".59"/><stop offset="1" stop-color="#82A6ED" stop-opacity="0"/></linearGradient><linearGradient id="s" x1="843" y1="-25" x2="-39" y2="765" gradientUnits="userSpaceOnUse"><stop offset=".109" stop-color="#82A6ED" stop-opacity=".59"/><stop offset="1" stop-color="#82A6ED" stop-opacity="0"/></linearGradient><linearGradient id="t" x1="843" y1="-25" x2="-39" y2="765" gradientUnits="userSpaceOnUse"><stop offset=".109" stop-color="#82A6ED" stop-opacity=".59"/><stop offset="1" stop-color="#82A6ED" stop-opacity="0"/></linearGradient><linearGradient id="u" x1="843" y1="-25" x2="-39" y2="765" gradientUnits="userSpaceOnUse"><stop offset=".109" stop-color="#82A6ED" stop-opacity=".59"/><stop offset="1" stop-color="#82A6ED" stop-opacity="0"/></linearGradient><linearGradient id="v" x1="843" y1="-25" x2="-39" y2="765" gradientUnits="userSpaceOnUse"><stop offset=".109" stop-color="#82A6ED" stop-opacity=".59"/><stop offset="1" stop-color="#82A6ED" stop-opacity="0"/></linearGradient><linearGradient id="w" x1="843" y1="-25" x2="-39" y2="765" gradientUnits="userSpaceOnUse"><stop offset=".109" stop-color="#82A6ED" stop-opacity=".59"/><stop offset="1" stop-color="#82A6ED" stop-opacity="0"/></linearGradient><linearGradient id="x" x1="843" y1="-25" x2="-39" y2="765" gradientUnits="userSpaceOnUse"><stop offset=".109" stop-color="#82A6ED" stop-opacity=".59"/><stop offset="1" stop-color="#82A6ED" stop-opacity="0"/></linearGradient><linearGradient id="y" x1="843" y1="-25" x2="-39" y2="765" gradientUnits="userSpaceOnUse"><stop offset=".109" stop-color="#82A6ED" stop-opacity=".59"/><stop offset="1" stop-color="#82A6ED" stop-opacity="0"/></linearGradient><linearGradient id="z" x1="843" y1="-25" x2="-39" y2="765" gradientUnits="userSpaceOnUse"><stop offset=".109" stop-color="#82A6ED" stop-opacity=".59"/><stop offset="1" stop-color="#82A6ED" stop-opacity="0"/></linearGradient><linearGradient id="A" x1="843" y1="-25" x2="-39" y2="765" gradientUnits="userSpaceOnUse"><stop offset=".109" stop-color="#82A6ED" stop-opacity=".59"/><stop offset="1" stop-color="#82A6ED" stop-opacity="0"/></linearGradient><linearGradient id="B" x1="843" y1="-25" x2="-39" y2="765" gradientUnits="userSpaceOnUse"><stop offset=".109" stop-color="#82A6ED" stop-opacity=".59"/><stop offset="1" stop-color="#82A6ED" stop-opacity="0"/></linearGradient><linearGradient id="C" x1="843" y1="-25" x2="-39" y2="765" gradientUnits="userSpaceOnUse"><stop offset=".109" stop-color="#82A6ED" stop-opacity=".59"/><stop offset="1" stop-color="#82A6ED" stop-opacity="0"/></linearGradient><linearGradient id="D" x1="843" y1="-25" x2="-39" y2="765" gradientUnits="userSpaceOnUse"><stop offset=".109" stop-color="#82A6ED" stop-opacity=".59"/><stop offset="1" stop-color="#82A6ED" stop-opacity="0"/></linearGradient><linearGradient id="E" x1="843" y1="-25" x2="-39" y2="765" gradientUnits="userSpaceOnUse"><stop offset=".109" stop-color="#82A6ED" stop-opacity=".59"/><stop offset="1" stop-color="#82A6ED" stop-opacity="0"/></linearGradient><linearGradient id="F" x1="843" y1="-25" x2="-39" y2="765" gradientUnits="userSpaceOnUse"><stop offset=".109" stop-color="#82A6ED" stop-opacity=".59"/><stop offset="1" stop-color="#82A6ED" stop-opacity="0"/></linearGradient><linearGradient id="G" x1="843" y1="-25" x2="-39" y2="765" gradientUnits="userSpaceOnUse"><stop offset=".109" stop-color="#82A6ED" stop-opacity=".59"/><stop offset="1" stop-color="#82A6ED" stop-opacity="0"/></linearGradient><linearGradient id="H" x1="843" y1="-25" x2="-39" y2="765" gradientUnits="userSpaceOnUse"><stop offset=".109" stop-color="#82A6ED" stop-opacity=".59"/><stop offset="1" stop-color="#82A6ED" stop-opacity="0"/></linearGradient><linearGradient id="I" x1="843" y1="-25" x2="-39" y2="765" gradientUnits="userSpaceOnUse"><stop offset=".109" stop-color="#82A6ED" stop-opacity=".59"/><stop offset="1" stop-color="#82A6ED" stop-opacity="0"/></linearGradient><linearGradient id="J" x1="843" y1="-25" x2="-39" y2="765" gradientUnits="userSpaceOnUse"><stop offset=".109" stop-color="#82A6ED" stop-opacity=".59"/><stop offset="1" stop-color="#82A6ED" stop-opacity="0"/></linearGradient><linearGradient id="K" x1="843" y1="-25" x2="-39" y2="765" gradientUnits="userSpaceOnUse"><stop offset=".109" stop-color="#82A6ED" stop-opacity=".59"/><stop offset="1" stop-color="#82A6ED" stop-opacity="0"/></linearGradient><linearGradient id="L" x1="843" y1="-25" x2="-39" y2="765" gradientUnits="userSpaceOnUse"><stop offset=".109" stop-color="#82A6ED" stop-opacity=".59"/><stop offset="1" stop-color="#82A6ED" stop-opacity="0"/></linearGradient><linearGradient id="M" x1="843" y1="-25" x2="-39" y2="765" gradientUnits="userSpaceOnUse"><stop offset=".109" stop-color="#82A6ED" stop-opacity=".59"/><stop offset="1" stop-color="#82A6ED" stop-opacity="0"/></linearGradient><clipPath id="a"><path fill="#fff" d="M0 0h820v765H0z"/></clipPath></defs></svg>