<svg width="45" height="35" fill="none" xmlns="http://www.w3.org/2000/svg"><path d="M21.397.174 1.71 6.737C.481 7.147-.204 8.173.068 9.185s1.415 1.75 2.75 1.75v.547c0 .91.941 1.64 2.11 1.64H40.08c1.169 0 2.11-.73 2.11-1.64v-.547c1.335 0 2.486-.731 2.75-1.75.263-1.019-.422-2.044-1.644-2.448L23.611.174a3.604 3.604 0 0 0-2.214 0ZM11.255 15.311H5.631v13.42c-.053.02-.106.048-.158.075l-4.219 2.188C.226 31.527-.24 32.525.121 33.448.48 34.371 1.58 35 2.819 35h39.37c1.24 0 2.329-.629 2.69-1.552.36-.923-.097-1.921-1.134-2.454l-4.219-2.188c-.052-.027-.105-.048-.158-.075V15.31h-5.616v13.126h-3.515V15.31h-5.624v13.126h-4.218V15.31H14.77v13.126h-3.515V15.31Zm11.249-6.564c-1.556 0-2.812-.977-2.812-2.187s1.256-2.188 2.812-2.188c1.555 0 2.812.978 2.812 2.188 0 1.21-1.257 2.187-2.812 2.187Z" fill="#4D6490"/></svg>