<svg width="80" height="60" fill="none" xmlns="http://www.w3.org/2000/svg"><circle cx="1" cy="1" r="1" fill="#3C5C9A"/><circle cx="5" cy="1" r="1" fill="#3C5C9A"/><circle cx="9" cy="1" r="1" fill="#3C5C9A"/><circle cx="13" cy="1" r="1" fill="#3C5C9A"/><circle cx="17" cy="1" r="1" fill="#3C5C9A"/><circle cx="21" cy="1" r="1" fill="#3C5C9A"/><circle cx="25" cy="1" r="1" fill="#3C5C9A"/><circle cx="29" cy="1" r="1" fill="#3C5C9A"/><circle cx="33" cy="1" r="1" fill="#3C5C9A"/><circle cx="37" cy="1" r="1" fill="#3C5C9A"/><circle cx="41" cy="1" r="1" fill="#3C5C9A"/><circle cx="45" cy="1" r="1" fill="#3C5C9A"/><circle cx="49" cy="1" r="1" fill="#3C5C9A"/><circle cx="53" cy="1" r="1" fill="#3C5C9A"/><circle cx="57" cy="1" r="1" fill="#3C5C9A"/><circle cx="61" cy="1" r="1" fill="#3C5C9A"/><circle cx="65" cy="1" r="1" fill="#3C5C9A"/><circle cx="69" cy="1" r="1" fill="#3C5C9A"/><circle cx="73" cy="1" r="1" fill="#3C5C9A"/><circle cx="77" cy="1" r="1" fill="#3C5C9A"/><circle cx="1" cy="21" r="1" fill="#3C5C9A"/><circle cx="5" cy="21" r="1" fill="#3C5C9A"/><circle cx="9" cy="21" r="1" fill="#3C5C9A"/><circle cx="13" cy="21" r="1" fill="#3C5C9A"/><circle cx="17" cy="21" r="1" fill="#3C5C9A"/><circle cx="21" cy="21" r="1" fill="#3C5C9A"/><circle cx="25" cy="21" r="1" fill="#3C5C9A"/><circle cx="29" cy="21" r="1" fill="#3C5C9A"/><circle cx="33" cy="21" r="1" fill="#3C5C9A"/><circle cx="37" cy="21" r="1" fill="#3C5C9A"/><circle cx="41" cy="21" r="1" fill="#3C5C9A"/><circle cx="45" cy="21" r="1" fill="#3C5C9A"/><circle cx="49" cy="21" r="1" fill="#3C5C9A"/><circle cx="53" cy="21" r="1" fill="#3C5C9A"/><circle cx="57" cy="21" r="1" fill="#3C5C9A"/><circle cx="61" cy="21" r="1" fill="#3C5C9A"/><circle cx="65" cy="21" r="1" fill="#3C5C9A"/><circle cx="69" cy="21" r="1" fill="#3C5C9A"/><circle cx="73" cy="21" r="1" fill="#3C5C9A"/><circle cx="77" cy="21" r="1" fill="#3C5C9A"/><circle cx="1" cy="41" r="1" fill="#3C5C9A"/><circle cx="5" cy="41" r="1" fill="#3C5C9A"/><circle cx="9" cy="41" r="1" fill="#3C5C9A"/><circle cx="13" cy="41" r="1" fill="#3C5C9A"/><circle cx="17" cy="41" r="1" fill="#3C5C9A"/><circle cx="21" cy="41" r="1" fill="#3C5C9A"/><circle cx="25" cy="41" r="1" fill="#3C5C9A"/><circle cx="29" cy="41" r="1" fill="#3C5C9A"/><circle cx="33" cy="41" r="1" fill="#3C5C9A"/><circle cx="37" cy="41" r="1" fill="#3C5C9A"/><circle cx="41" cy="41" r="1" fill="#3C5C9A"/><circle cx="45" cy="41" r="1" fill="#3C5C9A"/><circle cx="49" cy="41" r="1" fill="#3C5C9A"/><circle cx="53" cy="41" r="1" fill="#3C5C9A"/><circle cx="57" cy="41" r="1" fill="#3C5C9A"/><circle cx="61" cy="41" r="1" fill="#3C5C9A"/><circle cx="65" cy="41" r="1" fill="#3C5C9A"/><circle cx="69" cy="41" r="1" fill="#3C5C9A"/><circle cx="73" cy="41" r="1" fill="#3C5C9A"/><circle cx="77" cy="41" r="1" fill="#3C5C9A"/><circle cx="1" cy="17" r="1" fill="#3C5C9A"/><circle cx="5" cy="17" r="1" fill="#3C5C9A"/><circle cx="9" cy="17" r="1" fill="#3C5C9A"/><circle cx="13" cy="17" r="1" fill="#3C5C9A"/><circle cx="17" cy="17" r="1" fill="#3C5C9A"/><circle cx="21" cy="17" r="1" fill="#3C5C9A"/><circle cx="25" cy="17" r="1" fill="#3C5C9A"/><circle cx="29" cy="17" r="1" fill="#3C5C9A"/><circle cx="33" cy="17" r="1" fill="#3C5C9A"/><circle cx="37" cy="17" r="1" fill="#3C5C9A"/><circle cx="41" cy="17" r="1" fill="#3C5C9A"/><circle cx="45" cy="17" r="1" fill="#3C5C9A"/><circle cx="49" cy="17" r="1" fill="#3C5C9A"/><circle cx="53" cy="17" r="1" fill="#3C5C9A"/><circle cx="57" cy="17" r="1" fill="#3C5C9A"/><circle cx="61" cy="17" r="1" fill="#3C5C9A"/><circle cx="65" cy="17" r="1" fill="#3C5C9A"/><circle cx="69" cy="17" r="1" fill="#3C5C9A"/><circle cx="73" cy="17" r="1" fill="#3C5C9A"/><circle cx="77" cy="17" r="1" fill="#3C5C9A"/><circle cx="1" cy="37" r="1" fill="#3C5C9A"/><circle cx="5" cy="37" r="1" fill="#3C5C9A"/><circle cx="9" cy="37" r="1" fill="#3C5C9A"/><circle cx="13" cy="37" r="1" fill="#3C5C9A"/><circle cx="17" cy="37" r="1" fill="#3C5C9A"/><circle cx="21" cy="37" r="1" fill="#3C5C9A"/><circle cx="25" cy="37" r="1" fill="#3C5C9A"/><circle cx="29" cy="37" r="1" fill="#3C5C9A"/><circle cx="33" cy="37" r="1" fill="#3C5C9A"/><circle cx="37" cy="37" r="1" fill="#3C5C9A"/><circle cx="41" cy="37" r="1" fill="#3C5C9A"/><circle cx="45" cy="37" r="1" fill="#3C5C9A"/><circle cx="49" cy="37" r="1" fill="#3C5C9A"/><circle cx="53" cy="37" r="1" fill="#3C5C9A"/><circle cx="57" cy="37" r="1" fill="#3C5C9A"/><circle cx="61" cy="37" r="1" fill="#3C5C9A"/><circle cx="65" cy="37" r="1" fill="#3C5C9A"/><circle cx="69" cy="37" r="1" fill="#3C5C9A"/><circle cx="73" cy="37" r="1" fill="#3C5C9A"/><circle cx="77" cy="37" r="1" fill="#3C5C9A"/><circle cx="1" cy="57" r="1" fill="#3C5C9A"/><circle cx="5" cy="57" r="1" fill="#3C5C9A"/><circle cx="9" cy="57" r="1" fill="#3C5C9A"/><circle cx="13" cy="57" r="1" fill="#3C5C9A"/><circle cx="17" cy="57" r="1" fill="#3C5C9A"/><circle cx="21" cy="57" r="1" fill="#3C5C9A"/><circle cx="25" cy="57" r="1" fill="#3C5C9A"/><circle cx="29" cy="57" r="1" fill="#3C5C9A"/><circle cx="33" cy="57" r="1" fill="#3C5C9A"/><circle cx="37" cy="57" r="1" fill="#3C5C9A"/><circle cx="41" cy="57" r="1" fill="#3C5C9A"/><circle cx="45" cy="57" r="1" fill="#3C5C9A"/><circle cx="49" cy="57" r="1" fill="#3C5C9A"/><circle cx="53" cy="57" r="1" fill="#3C5C9A"/><circle cx="57" cy="57" r="1" fill="#3C5C9A"/><circle cx="61" cy="57" r="1" fill="#3C5C9A"/><circle cx="65" cy="57" r="1" fill="#3C5C9A"/><circle cx="69" cy="57" r="1" fill="#3C5C9A"/><circle cx="73" cy="57" r="1" fill="#3C5C9A"/><circle cx="77" cy="57" r="1" fill="#3C5C9A"/><circle cx="1" cy="5" r="1" fill="#3C5C9A"/><circle cx="5" cy="5" r="1" fill="#3C5C9A"/><circle cx="9" cy="5" r="1" fill="#3C5C9A"/><circle cx="13" cy="5" r="1" fill="#3C5C9A"/><circle cx="17" cy="5" r="1" fill="#3C5C9A"/><circle cx="21" cy="5" r="1" fill="#3C5C9A"/><circle cx="25" cy="5" r="1" fill="#3C5C9A"/><circle cx="29" cy="5" r="1" fill="#3C5C9A"/><circle cx="33" cy="5" r="1" fill="#3C5C9A"/><circle cx="37" cy="5" r="1" fill="#3C5C9A"/><circle cx="41" cy="5" r="1" fill="#3C5C9A"/><circle cx="45" cy="5" r="1" fill="#3C5C9A"/><circle cx="49" cy="5" r="1" fill="#3C5C9A"/><circle cx="53" cy="5" r="1" fill="#3C5C9A"/><circle cx="57" cy="5" r="1" fill="#3C5C9A"/><circle cx="61" cy="5" r="1" fill="#3C5C9A"/><circle cx="65" cy="5" r="1" fill="#3C5C9A"/><circle cx="69" cy="5" r="1" fill="#3C5C9A"/><circle cx="73" cy="5" r="1" fill="#3C5C9A"/><circle cx="77" cy="5" r="1" fill="#3C5C9A"/><circle cx="1" cy="25" r="1" fill="#3C5C9A"/><circle cx="5" cy="25" r="1" fill="#3C5C9A"/><circle cx="9" cy="25" r="1" fill="#3C5C9A"/><circle cx="13" cy="25" r="1" fill="#3C5C9A"/><circle cx="17" cy="25" r="1" fill="#3C5C9A"/><circle cx="21" cy="25" r="1" fill="#3C5C9A"/><circle cx="25" cy="25" r="1" fill="#3C5C9A"/><circle cx="29" cy="25" r="1" fill="#3C5C9A"/><circle cx="33" cy="25" r="1" fill="#3C5C9A"/><circle cx="37" cy="25" r="1" fill="#3C5C9A"/><circle cx="41" cy="25" r="1" fill="#3C5C9A"/><circle cx="45" cy="25" r="1" fill="#3C5C9A"/><circle cx="49" cy="25" r="1" fill="#3C5C9A"/><circle cx="53" cy="25" r="1" fill="#3C5C9A"/><circle cx="57" cy="25" r="1" fill="#3C5C9A"/><circle cx="61" cy="25" r="1" fill="#3C5C9A"/><circle cx="65" cy="25" r="1" fill="#3C5C9A"/><circle cx="69" cy="25" r="1" fill="#3C5C9A"/><circle cx="73" cy="25" r="1" fill="#3C5C9A"/><circle cx="77" cy="25" r="1" fill="#3C5C9A"/><circle cx="1" cy="45" r="1" fill="#3C5C9A"/><circle cx="5" cy="45" r="1" fill="#3C5C9A"/><circle cx="9" cy="45" r="1" fill="#3C5C9A"/><circle cx="13" cy="45" r="1" fill="#3C5C9A"/><circle cx="17" cy="45" r="1" fill="#3C5C9A"/><circle cx="21" cy="45" r="1" fill="#3C5C9A"/><circle cx="25" cy="45" r="1" fill="#3C5C9A"/><circle cx="29" cy="45" r="1" fill="#3C5C9A"/><circle cx="33" cy="45" r="1" fill="#3C5C9A"/><circle cx="37" cy="45" r="1" fill="#3C5C9A"/><circle cx="41" cy="45" r="1" fill="#3C5C9A"/><circle cx="45" cy="45" r="1" fill="#3C5C9A"/><circle cx="49" cy="45" r="1" fill="#3C5C9A"/><circle cx="53" cy="45" r="1" fill="#3C5C9A"/><circle cx="57" cy="45" r="1" fill="#3C5C9A"/><circle cx="61" cy="45" r="1" fill="#3C5C9A"/><circle cx="65" cy="45" r="1" fill="#3C5C9A"/><circle cx="69" cy="45" r="1" fill="#3C5C9A"/><circle cx="73" cy="45" r="1" fill="#3C5C9A"/><circle cx="77" cy="45" r="1" fill="#3C5C9A"/><circle cx="1" cy="9" r="1" fill="#3C5C9A"/><circle cx="5" cy="9" r="1" fill="#3C5C9A"/><circle cx="9" cy="9" r="1" fill="#3C5C9A"/><circle cx="13" cy="9" r="1" fill="#3C5C9A"/><circle cx="17" cy="9" r="1" fill="#3C5C9A"/><circle cx="21" cy="9" r="1" fill="#3C5C9A"/><circle cx="25" cy="9" r="1" fill="#3C5C9A"/><circle cx="29" cy="9" r="1" fill="#3C5C9A"/><circle cx="33" cy="9" r="1" fill="#3C5C9A"/><circle cx="37" cy="9" r="1" fill="#3C5C9A"/><circle cx="41" cy="9" r="1" fill="#3C5C9A"/><circle cx="45" cy="9" r="1" fill="#3C5C9A"/><circle cx="49" cy="9" r="1" fill="#3C5C9A"/><circle cx="53" cy="9" r="1" fill="#3C5C9A"/><circle cx="57" cy="9" r="1" fill="#3C5C9A"/><circle cx="61" cy="9" r="1" fill="#3C5C9A"/><circle cx="65" cy="9" r="1" fill="#3C5C9A"/><circle cx="69" cy="9" r="1" fill="#3C5C9A"/><circle cx="73" cy="9" r="1" fill="#3C5C9A"/><circle cx="77" cy="9" r="1" fill="#3C5C9A"/><circle cx="1" cy="29" r="1" fill="#3C5C9A"/><circle cx="5" cy="29" r="1" fill="#3C5C9A"/><circle cx="9" cy="29" r="1" fill="#3C5C9A"/><circle cx="13" cy="29" r="1" fill="#3C5C9A"/><circle cx="17" cy="29" r="1" fill="#3C5C9A"/><circle cx="21" cy="29" r="1" fill="#3C5C9A"/><circle cx="25" cy="29" r="1" fill="#3C5C9A"/><circle cx="29" cy="29" r="1" fill="#3C5C9A"/><circle cx="33" cy="29" r="1" fill="#3C5C9A"/><circle cx="37" cy="29" r="1" fill="#3C5C9A"/><circle cx="41" cy="29" r="1" fill="#3C5C9A"/><circle cx="45" cy="29" r="1" fill="#3C5C9A"/><circle cx="49" cy="29" r="1" fill="#3C5C9A"/><circle cx="53" cy="29" r="1" fill="#3C5C9A"/><circle cx="57" cy="29" r="1" fill="#3C5C9A"/><circle cx="61" cy="29" r="1" fill="#3C5C9A"/><circle cx="65" cy="29" r="1" fill="#3C5C9A"/><circle cx="69" cy="29" r="1" fill="#3C5C9A"/><circle cx="73" cy="29" r="1" fill="#3C5C9A"/><circle cx="77" cy="29" r="1" fill="#3C5C9A"/><circle cx="1" cy="49" r="1" fill="#3C5C9A"/><circle cx="5" cy="49" r="1" fill="#3C5C9A"/><circle cx="9" cy="49" r="1" fill="#3C5C9A"/><circle cx="13" cy="49" r="1" fill="#3C5C9A"/><circle cx="17" cy="49" r="1" fill="#3C5C9A"/><circle cx="21" cy="49" r="1" fill="#3C5C9A"/><circle cx="25" cy="49" r="1" fill="#3C5C9A"/><circle cx="29" cy="49" r="1" fill="#3C5C9A"/><circle cx="33" cy="49" r="1" fill="#3C5C9A"/><circle cx="37" cy="49" r="1" fill="#3C5C9A"/><circle cx="41" cy="49" r="1" fill="#3C5C9A"/><circle cx="45" cy="49" r="1" fill="#3C5C9A"/><circle cx="49" cy="49" r="1" fill="#3C5C9A"/><circle cx="53" cy="49" r="1" fill="#3C5C9A"/><circle cx="57" cy="49" r="1" fill="#3C5C9A"/><circle cx="61" cy="49" r="1" fill="#3C5C9A"/><circle cx="65" cy="49" r="1" fill="#3C5C9A"/><circle cx="69" cy="49" r="1" fill="#3C5C9A"/><circle cx="73" cy="49" r="1" fill="#3C5C9A"/><circle cx="77" cy="49" r="1" fill="#3C5C9A"/><circle cx="1" cy="13" r="1" fill="#3C5C9A"/><circle cx="5" cy="13" r="1" fill="#3C5C9A"/><circle cx="9" cy="13" r="1" fill="#3C5C9A"/><circle cx="13" cy="13" r="1" fill="#3C5C9A"/><circle cx="17" cy="13" r="1" fill="#3C5C9A"/><circle cx="21" cy="13" r="1" fill="#3C5C9A"/><circle cx="25" cy="13" r="1" fill="#3C5C9A"/><circle cx="29" cy="13" r="1" fill="#3C5C9A"/><circle cx="33" cy="13" r="1" fill="#3C5C9A"/><circle cx="37" cy="13" r="1" fill="#3C5C9A"/><circle cx="41" cy="13" r="1" fill="#3C5C9A"/><circle cx="45" cy="13" r="1" fill="#3C5C9A"/><circle cx="49" cy="13" r="1" fill="#3C5C9A"/><circle cx="53" cy="13" r="1" fill="#3C5C9A"/><circle cx="57" cy="13" r="1" fill="#3C5C9A"/><circle cx="61" cy="13" r="1" fill="#3C5C9A"/><circle cx="65" cy="13" r="1" fill="#3C5C9A"/><circle cx="69" cy="13" r="1" fill="#3C5C9A"/><circle cx="73" cy="13" r="1" fill="#3C5C9A"/><circle cx="77" cy="13" r="1" fill="#3C5C9A"/><circle cx="1" cy="33" r="1" fill="#3C5C9A"/><circle cx="5" cy="33" r="1" fill="#3C5C9A"/><circle cx="9" cy="33" r="1" fill="#3C5C9A"/><circle cx="13" cy="33" r="1" fill="#3C5C9A"/><circle cx="17" cy="33" r="1" fill="#3C5C9A"/><circle cx="21" cy="33" r="1" fill="#3C5C9A"/><circle cx="25" cy="33" r="1" fill="#3C5C9A"/><circle cx="29" cy="33" r="1" fill="#3C5C9A"/><circle cx="33" cy="33" r="1" fill="#3C5C9A"/><circle cx="37" cy="33" r="1" fill="#3C5C9A"/><circle cx="41" cy="33" r="1" fill="#3C5C9A"/><circle cx="45" cy="33" r="1" fill="#3C5C9A"/><circle cx="49" cy="33" r="1" fill="#3C5C9A"/><circle cx="53" cy="33" r="1" fill="#3C5C9A"/><circle cx="57" cy="33" r="1" fill="#3C5C9A"/><circle cx="61" cy="33" r="1" fill="#3C5C9A"/><circle cx="65" cy="33" r="1" fill="#3C5C9A"/><circle cx="69" cy="33" r="1" fill="#3C5C9A"/><circle cx="73" cy="33" r="1" fill="#3C5C9A"/><circle cx="77" cy="33" r="1" fill="#3C5C9A"/><circle cx="1" cy="53" r="1" fill="#3C5C9A"/><circle cx="5" cy="53" r="1" fill="#3C5C9A"/><circle cx="9" cy="53" r="1" fill="#3C5C9A"/><circle cx="13" cy="53" r="1" fill="#3C5C9A"/><circle cx="17" cy="53" r="1" fill="#3C5C9A"/><circle cx="21" cy="53" r="1" fill="#3C5C9A"/><circle cx="25" cy="53" r="1" fill="#3C5C9A"/><circle cx="29" cy="53" r="1" fill="#3C5C9A"/><circle cx="33" cy="53" r="1" fill="#3C5C9A"/><circle cx="37" cy="53" r="1" fill="#3C5C9A"/><circle cx="41" cy="53" r="1" fill="#3C5C9A"/><circle cx="45" cy="53" r="1" fill="#3C5C9A"/><circle cx="49" cy="53" r="1" fill="#3C5C9A"/><circle cx="53" cy="53" r="1" fill="#3C5C9A"/><circle cx="57" cy="53" r="1" fill="#3C5C9A"/><circle cx="61" cy="53" r="1" fill="#3C5C9A"/><circle cx="65" cy="53" r="1" fill="#3C5C9A"/><circle cx="69" cy="53" r="1" fill="#3C5C9A"/><circle cx="73" cy="53" r="1" fill="#3C5C9A"/><circle cx="77" cy="53" r="1" fill="#3C5C9A"/></svg>