<svg width="45" height="35" fill="none" xmlns="http://www.w3.org/2000/svg"><path d="M23.302 0c-3.397-.006-7.653 1.216-11.851 3.706-4.192 2.489-7.515 5.75-9.465 8.935-1.952 3.174-2.48 6.13-1.52 8.239.962 2.098 3.391 3.305 6.797 3.305 3.405.01 7.66-1.218 11.85-3.696 4.198-2.49 7.519-5.761 9.465-8.935 1.956-3.174 2.472-6.131 1.518-8.24C29.132 1.216 26.708 0 23.302 0Zm8.769 7.64c-.334 1.664-1.06 3.37-2.08 5.033-2.157 3.511-5.678 6.935-10.086 9.544-4.409 2.62-8.884 3.935-12.643 3.935-1.775 0-3.42-.305-4.807-.946l1.01 2.218c.963 2.108 3.385 3.315 6.793 3.315 3.406 0 7.662-1.217 11.85-3.707 4.2-2.478 7.52-5.75 9.466-8.935 1.947-3.174 2.481-6.13 1.518-8.228L32.07 7.64Zm2.748 1.827c1.068 2.902.21 6.435-1.832 9.75-1.804 2.946-4.561 5.804-7.977 8.196 1.059.13 2.166.195 3.292.195 4.723 0 8.998-1.152 12.013-2.945C43.34 22.869 45 20.52 45 18.152c0-2.37-1.66-4.718-4.685-6.511-1.536-.914-3.407-1.664-5.496-2.174ZM45 23.032c-.973 1.294-2.31 2.435-3.884 3.37-3.34 1.978-7.843 3.163-12.814 3.163-2.023 0-3.97-.196-5.792-.565-2.214 1.272-4.437 2.217-6.575 2.837.115.076.23.141.353.217C19.303 33.848 23.578 35 28.302 35c4.723 0 8.998-1.152 12.013-2.946C43.34 30.261 45 27.913 45 25.544v-2.512Z" fill="#4D6490"/></svg>