<svg viewBox="0 0 185 114" fill="none" xmlns="http://www.w3.org/2000/svg"><path d="M121.867 22.474v3.041h19.028c1.268 0 3.171 0 4.42 1.74 1.25 1.739 1.269 4.347 1.269 6.06v26.089c0 1.739 0 4.348-1.269 6.06-1.268 1.74-3.171 1.74-4.42 1.74h-9.187c-1.584 0-3.648 0-4.421-2.393-.792-2.393.317-4.564 1.269-6.324l12.377-22.61h-19.027l-7.611 13.913c-1.276 2.33-2.38 4.349-2.38 6.957 0 2.61 1.027 4.486 2.38 6.957l1.902 3.479c1.903 3.478 3.806 6.957 6.343 8.696 2.537 1.74 5.535 1.74 9.687 1.74h8.226c4.766 0 11.878 0 16.644-6.536 4.767-6.535 4.767-16.075 4.767-19.553V41.094c0-3.478 0-13.018-4.767-19.553-4.766-6.535-11.878-6.535-16.644-6.535L127.306 15c-1.268 0-2.852 0-4.113 1.74-1.268 1.739-1.268 3.91-1.268 5.639" fill="#C4151C"/><path d="M99.188 35.966h18.835L95.344 77.813H76.51l22.679-41.847ZM25 43.345c0-1.74 0-3.91 1.268-5.64 1.269-1.728 2.853-1.739 4.113-1.739h31.867c4.113 0 7.15 0 9.687 1.74 2.537 1.739 4.42 5.217 6.342 8.696l1.903 3.478c1.349 2.467 2.38 4.348 2.38 6.957s-1.104 4.627-2.38 6.957l-7.611 13.914H53.54l12.378-22.61c.95-1.74 2.06-3.91 1.268-6.325-.792-2.392-2.852-2.392-4.42-2.392H47.852v52.177H32.63V46.38h-7.61v-3.047" fill="#C4151C"/></svg>