<svg xmlns="http://www.w3.org/2000/svg">
  <symbol width="15" height="10" viewBox="0 0 30 30" fill="none" id="menu-arrow">
    <path d="M2.76465 22.9282L18.8235 2.70593L34.8823 22.9282" stroke="#a7a4a4" stroke-width="5" stroke-linecap="round" stroke-linejoin="round"/>
  </symbol>
  <symbol width="23" height="14" viewBox="0 0 38 26" fill="none" id="up-button">
    <path d="M2.76465 22.9282L18.8235 2.70593L34.8823 22.9282" stroke="#5473af" stroke-width="4" stroke-linecap="round" stroke-linejoin="round"/>
  </symbol>
  <symbol viewBox="0 0 14 37" fill="none" id="list-arrow">
    <path d="M2.25 2.02673L11.75 18.0534L2.25 34.0801" stroke="#5473af" stroke-width="4" stroke-linecap="round" stroke-linejoin="round"/>
  </symbol>
  <symbol width="22" height="19" viewBox="0 0 22 19" fill="none" id="adress">
    <g clip-path="url(#clip0_83_51)">
      <path d="M20.1666 10.0278C20.0862 10.0282 20.0065 10.0149 19.932 9.98861C19.8575 9.96235 19.7898 9.92365 19.7327 9.87473L10.9999 2.32751L2.26716 9.87473C2.15025 9.9612 1.99987 10.0064 1.84607 10.0012C1.69227 9.99612 1.54637 9.94105 1.43754 9.84706C1.3287 9.75307 1.26494 9.62706 1.259 9.49423C1.25306 9.36141 1.30537 9.23153 1.40549 9.13057L10.5722 1.2139C10.6867 1.1156 10.8415 1.06042 11.003 1.06042C11.1644 1.06042 11.3193 1.1156 11.4338 1.2139L20.6005 9.13057C20.6846 9.20466 20.7415 9.29851 20.7642 9.4004C20.7869 9.50228 20.7743 9.60768 20.728 9.70341C20.6817 9.79915 20.6037 9.88098 20.5039 9.93867C20.4041 9.99636 20.2867 10.0274 20.1666 10.0278Z" fill="#D2E1FB"/>
      <path d="M11.0001 4.11139L3.66675 10.4658V16.8889C3.66675 17.1688 3.79552 17.4373 4.02473 17.6353C4.25394 17.8332 4.56482 17.9444 4.88897 17.9444H9.16675V12.6667H12.8334V17.9444H17.1112C17.4353 17.9444 17.7462 17.8332 17.9754 17.6353C18.2046 17.4373 18.3334 17.1688 18.3334 16.8889V10.4289L11.0001 4.11139Z" fill="#D2E1FB"/>
    </g>
    <defs>
      <clipPath id="clip0_83_51">
        <rect width="22" height="19" fill="white"/>
      </clipPath>
    </defs>
  </symbol>
  <symbol width="15" height="15" viewBox="0 0 15 15" fill="none" id="phone">
    <path d="M9.98104 10.6356L11.2626 9.35359C11.4352 9.18306 11.6535 9.06633 11.8912 9.01756C12.1288 8.96879 12.3755 8.99009 12.6013 9.07887L14.1631 9.70272C14.3913 9.79537 14.5869 9.95351 14.7254 10.1572C14.8639 10.3609 14.9389 10.6011 14.9412 10.8474V13.7091C14.9399 13.8766 14.9047 14.0422 14.8377 14.1958C14.7707 14.3494 14.6734 14.4878 14.5515 14.6028C14.4296 14.7178 14.2858 14.8069 14.1286 14.8648C13.9714 14.9226 13.8041 14.9481 13.6368 14.9396C2.69242 14.2585 0.484094 4.98667 0.0664569 1.43819C0.0470699 1.26393 0.0647833 1.08755 0.118432 0.920633C0.17208 0.753718 0.260447 0.600058 0.377721 0.469762C0.494994 0.339466 0.638515 0.235487 0.798842 0.164665C0.959169 0.093844 1.13267 0.0577853 1.30793 0.0588613H4.07119C4.31778 0.0595915 4.5585 0.134105 4.76241 0.272817C4.96631 0.41153 5.12408 0.608097 5.2154 0.837238L5.839 2.39971C5.93068 2.62468 5.95407 2.87169 5.90625 3.10988C5.85843 3.34806 5.74151 3.56688 5.57011 3.73898L4.28859 5.02101C4.28859 5.02101 5.02661 10.0175 9.98104 10.6356Z" fill="#D2E1FB"/>
  </symbol>
</svg>
